%TF.GenerationSoftware,KiCad,Pcbnew,9.0.6*%
%TF.CreationDate,2025-12-11T18:15:34+03:00*%
%TF.ProjectId,Design,44657369-676e-42e6-9b69-6361645f7063,rev?*%
%TF.SameCoordinates,Original*%
%TF.FileFunction,Legend,Bot*%
%TF.FilePolarity,Positive*%
%FSLAX46Y46*%
G04 Gerber Fmt 4.6, Leading zero omitted, Abs format (unit mm)*
G04 Created by KiCad (PCBNEW 9.0.6) date 2025-12-11 18:15:34*
%MOMM*%
%LPD*%
G01*
G04 APERTURE LIST*
%ADD10C,0.200000*%
%ADD11C,0.100000*%
G04 APERTURE END LIST*
D10*
X-16893482Y-5414838D02*
X-16798244Y-5367219D01*
X-16798244Y-5367219D02*
X-16655387Y-5367219D01*
X-16655387Y-5367219D02*
X-16512530Y-5414838D01*
X-16512530Y-5414838D02*
X-16417292Y-5510076D01*
X-16417292Y-5510076D02*
X-16369673Y-5605314D01*
X-16369673Y-5605314D02*
X-16322054Y-5795790D01*
X-16322054Y-5795790D02*
X-16322054Y-5938647D01*
X-16322054Y-5938647D02*
X-16369673Y-6129123D01*
X-16369673Y-6129123D02*
X-16417292Y-6224361D01*
X-16417292Y-6224361D02*
X-16512530Y-6319600D01*
X-16512530Y-6319600D02*
X-16655387Y-6367219D01*
X-16655387Y-6367219D02*
X-16750625Y-6367219D01*
X-16750625Y-6367219D02*
X-16893482Y-6319600D01*
X-16893482Y-6319600D02*
X-16941101Y-6271980D01*
X-16941101Y-6271980D02*
X-16941101Y-5938647D01*
X-16941101Y-5938647D02*
X-16750625Y-5938647D01*
X-17941101Y-6367219D02*
X-17607768Y-5891028D01*
X-17369673Y-6367219D02*
X-17369673Y-5367219D01*
X-17369673Y-5367219D02*
X-17750625Y-5367219D01*
X-17750625Y-5367219D02*
X-17845863Y-5414838D01*
X-17845863Y-5414838D02*
X-17893482Y-5462457D01*
X-17893482Y-5462457D02*
X-17941101Y-5557695D01*
X-17941101Y-5557695D02*
X-17941101Y-5700552D01*
X-17941101Y-5700552D02*
X-17893482Y-5795790D01*
X-17893482Y-5795790D02*
X-17845863Y-5843409D01*
X-17845863Y-5843409D02*
X-17750625Y-5891028D01*
X-17750625Y-5891028D02*
X-17369673Y-5891028D01*
X-18560149Y-5367219D02*
X-18750625Y-5367219D01*
X-18750625Y-5367219D02*
X-18845863Y-5414838D01*
X-18845863Y-5414838D02*
X-18941101Y-5510076D01*
X-18941101Y-5510076D02*
X-18988720Y-5700552D01*
X-18988720Y-5700552D02*
X-18988720Y-6033885D01*
X-18988720Y-6033885D02*
X-18941101Y-6224361D01*
X-18941101Y-6224361D02*
X-18845863Y-6319600D01*
X-18845863Y-6319600D02*
X-18750625Y-6367219D01*
X-18750625Y-6367219D02*
X-18560149Y-6367219D01*
X-18560149Y-6367219D02*
X-18464911Y-6319600D01*
X-18464911Y-6319600D02*
X-18369673Y-6224361D01*
X-18369673Y-6224361D02*
X-18322054Y-6033885D01*
X-18322054Y-6033885D02*
X-18322054Y-5700552D01*
X-18322054Y-5700552D02*
X-18369673Y-5510076D01*
X-18369673Y-5510076D02*
X-18464911Y-5414838D01*
X-18464911Y-5414838D02*
X-18560149Y-5367219D01*
X-19417292Y-5367219D02*
X-19417292Y-6176742D01*
X-19417292Y-6176742D02*
X-19464911Y-6271980D01*
X-19464911Y-6271980D02*
X-19512530Y-6319600D01*
X-19512530Y-6319600D02*
X-19607768Y-6367219D01*
X-19607768Y-6367219D02*
X-19798244Y-6367219D01*
X-19798244Y-6367219D02*
X-19893482Y-6319600D01*
X-19893482Y-6319600D02*
X-19941101Y-6271980D01*
X-19941101Y-6271980D02*
X-19988720Y-6176742D01*
X-19988720Y-6176742D02*
X-19988720Y-5367219D01*
X-20464911Y-6367219D02*
X-20464911Y-5367219D01*
X-20464911Y-5367219D02*
X-20845863Y-5367219D01*
X-20845863Y-5367219D02*
X-20941101Y-5414838D01*
X-20941101Y-5414838D02*
X-20988720Y-5462457D01*
X-20988720Y-5462457D02*
X-21036339Y-5557695D01*
X-21036339Y-5557695D02*
X-21036339Y-5700552D01*
X-21036339Y-5700552D02*
X-20988720Y-5795790D01*
X-20988720Y-5795790D02*
X-20941101Y-5843409D01*
X-20941101Y-5843409D02*
X-20845863Y-5891028D01*
X-20845863Y-5891028D02*
X-20464911Y-5891028D01*
X-22750625Y-6367219D02*
X-22179197Y-6367219D01*
X-22464911Y-6367219D02*
X-22464911Y-5367219D01*
X-22464911Y-5367219D02*
X-22369673Y-5510076D01*
X-22369673Y-5510076D02*
X-22274435Y-5605314D01*
X-22274435Y-5605314D02*
X-22179197Y-5652933D01*
X-24179197Y-6700552D02*
X-24179197Y-5271980D01*
X-25131578Y-6700552D02*
X-25131578Y-5271980D01*
X-26464912Y-5367219D02*
X-27036340Y-5367219D01*
X-26750626Y-6367219D02*
X-26750626Y-5367219D01*
X-27369674Y-6367219D02*
X-27369674Y-5367219D01*
X-27369674Y-5843409D02*
X-27941102Y-5843409D01*
X-27941102Y-6367219D02*
X-27941102Y-5367219D01*
X-28417293Y-5843409D02*
X-28750626Y-5843409D01*
X-28893483Y-6367219D02*
X-28417293Y-6367219D01*
X-28417293Y-6367219D02*
X-28417293Y-5367219D01*
X-28417293Y-5367219D02*
X-28893483Y-5367219D01*
X-29893483Y-6367219D02*
X-29560150Y-5891028D01*
X-29322055Y-6367219D02*
X-29322055Y-5367219D01*
X-29322055Y-5367219D02*
X-29703007Y-5367219D01*
X-29703007Y-5367219D02*
X-29798245Y-5414838D01*
X-29798245Y-5414838D02*
X-29845864Y-5462457D01*
X-29845864Y-5462457D02*
X-29893483Y-5557695D01*
X-29893483Y-5557695D02*
X-29893483Y-5700552D01*
X-29893483Y-5700552D02*
X-29845864Y-5795790D01*
X-29845864Y-5795790D02*
X-29798245Y-5843409D01*
X-29798245Y-5843409D02*
X-29703007Y-5891028D01*
X-29703007Y-5891028D02*
X-29322055Y-5891028D01*
X-30322055Y-6367219D02*
X-30322055Y-5367219D01*
X-30322055Y-5367219D02*
X-30655388Y-6081504D01*
X-30655388Y-6081504D02*
X-30988721Y-5367219D01*
X-30988721Y-5367219D02*
X-30988721Y-6367219D01*
X-31655388Y-5367219D02*
X-31845864Y-5367219D01*
X-31845864Y-5367219D02*
X-31941102Y-5414838D01*
X-31941102Y-5414838D02*
X-32036340Y-5510076D01*
X-32036340Y-5510076D02*
X-32083959Y-5700552D01*
X-32083959Y-5700552D02*
X-32083959Y-6033885D01*
X-32083959Y-6033885D02*
X-32036340Y-6224361D01*
X-32036340Y-6224361D02*
X-31941102Y-6319600D01*
X-31941102Y-6319600D02*
X-31845864Y-6367219D01*
X-31845864Y-6367219D02*
X-31655388Y-6367219D01*
X-31655388Y-6367219D02*
X-31560150Y-6319600D01*
X-31560150Y-6319600D02*
X-31464912Y-6224361D01*
X-31464912Y-6224361D02*
X-31417293Y-6033885D01*
X-31417293Y-6033885D02*
X-31417293Y-5700552D01*
X-31417293Y-5700552D02*
X-31464912Y-5510076D01*
X-31464912Y-5510076D02*
X-31560150Y-5414838D01*
X-31560150Y-5414838D02*
X-31655388Y-5367219D01*
X-32512531Y-6367219D02*
X-32512531Y-5367219D01*
X-32512531Y-5367219D02*
X-32845864Y-6081504D01*
X-32845864Y-6081504D02*
X-33179197Y-5367219D01*
X-33179197Y-5367219D02*
X-33179197Y-6367219D01*
X-33655388Y-5843409D02*
X-33988721Y-5843409D01*
X-34131578Y-6367219D02*
X-33655388Y-6367219D01*
X-33655388Y-6367219D02*
X-33655388Y-5367219D01*
X-33655388Y-5367219D02*
X-34131578Y-5367219D01*
X-34417293Y-5367219D02*
X-34988721Y-5367219D01*
X-34703007Y-6367219D02*
X-34703007Y-5367219D01*
X-35322055Y-5843409D02*
X-35655388Y-5843409D01*
X-35798245Y-6367219D02*
X-35322055Y-6367219D01*
X-35322055Y-6367219D02*
X-35322055Y-5367219D01*
X-35322055Y-5367219D02*
X-35798245Y-5367219D01*
X-36798245Y-6367219D02*
X-36464912Y-5891028D01*
X-36226817Y-6367219D02*
X-36226817Y-5367219D01*
X-36226817Y-5367219D02*
X-36607769Y-5367219D01*
X-36607769Y-5367219D02*
X-36703007Y-5414838D01*
X-36703007Y-5414838D02*
X-36750626Y-5462457D01*
X-36750626Y-5462457D02*
X-36798245Y-5557695D01*
X-36798245Y-5557695D02*
X-36798245Y-5700552D01*
X-36798245Y-5700552D02*
X-36750626Y-5795790D01*
X-36750626Y-5795790D02*
X-36703007Y-5843409D01*
X-36703007Y-5843409D02*
X-36607769Y-5891028D01*
X-36607769Y-5891028D02*
X-36226817Y-5891028D01*
X-37988722Y-6367219D02*
X-37988722Y-5367219D01*
X-37988722Y-5367219D02*
X-38369674Y-5367219D01*
X-38369674Y-5367219D02*
X-38464912Y-5414838D01*
X-38464912Y-5414838D02*
X-38512531Y-5462457D01*
X-38512531Y-5462457D02*
X-38560150Y-5557695D01*
X-38560150Y-5557695D02*
X-38560150Y-5700552D01*
X-38560150Y-5700552D02*
X-38512531Y-5795790D01*
X-38512531Y-5795790D02*
X-38464912Y-5843409D01*
X-38464912Y-5843409D02*
X-38369674Y-5891028D01*
X-38369674Y-5891028D02*
X-37988722Y-5891028D01*
X-39560150Y-6367219D02*
X-39226817Y-5891028D01*
X-38988722Y-6367219D02*
X-38988722Y-5367219D01*
X-38988722Y-5367219D02*
X-39369674Y-5367219D01*
X-39369674Y-5367219D02*
X-39464912Y-5414838D01*
X-39464912Y-5414838D02*
X-39512531Y-5462457D01*
X-39512531Y-5462457D02*
X-39560150Y-5557695D01*
X-39560150Y-5557695D02*
X-39560150Y-5700552D01*
X-39560150Y-5700552D02*
X-39512531Y-5795790D01*
X-39512531Y-5795790D02*
X-39464912Y-5843409D01*
X-39464912Y-5843409D02*
X-39369674Y-5891028D01*
X-39369674Y-5891028D02*
X-38988722Y-5891028D01*
X-40179198Y-5367219D02*
X-40369674Y-5367219D01*
X-40369674Y-5367219D02*
X-40464912Y-5414838D01*
X-40464912Y-5414838D02*
X-40560150Y-5510076D01*
X-40560150Y-5510076D02*
X-40607769Y-5700552D01*
X-40607769Y-5700552D02*
X-40607769Y-6033885D01*
X-40607769Y-6033885D02*
X-40560150Y-6224361D01*
X-40560150Y-6224361D02*
X-40464912Y-6319600D01*
X-40464912Y-6319600D02*
X-40369674Y-6367219D01*
X-40369674Y-6367219D02*
X-40179198Y-6367219D01*
X-40179198Y-6367219D02*
X-40083960Y-6319600D01*
X-40083960Y-6319600D02*
X-39988722Y-6224361D01*
X-39988722Y-6224361D02*
X-39941103Y-6033885D01*
X-39941103Y-6033885D02*
X-39941103Y-5700552D01*
X-39941103Y-5700552D02*
X-39988722Y-5510076D01*
X-39988722Y-5510076D02*
X-40083960Y-5414838D01*
X-40083960Y-5414838D02*
X-40179198Y-5367219D01*
X-41322055Y-5367219D02*
X-41322055Y-6081504D01*
X-41322055Y-6081504D02*
X-41274436Y-6224361D01*
X-41274436Y-6224361D02*
X-41179198Y-6319600D01*
X-41179198Y-6319600D02*
X-41036341Y-6367219D01*
X-41036341Y-6367219D02*
X-40941103Y-6367219D01*
X-41798246Y-5843409D02*
X-42131579Y-5843409D01*
X-42274436Y-6367219D02*
X-41798246Y-6367219D01*
X-41798246Y-6367219D02*
X-41798246Y-5367219D01*
X-41798246Y-5367219D02*
X-42274436Y-5367219D01*
X-43274436Y-6271980D02*
X-43226817Y-6319600D01*
X-43226817Y-6319600D02*
X-43083960Y-6367219D01*
X-43083960Y-6367219D02*
X-42988722Y-6367219D01*
X-42988722Y-6367219D02*
X-42845865Y-6319600D01*
X-42845865Y-6319600D02*
X-42750627Y-6224361D01*
X-42750627Y-6224361D02*
X-42703008Y-6129123D01*
X-42703008Y-6129123D02*
X-42655389Y-5938647D01*
X-42655389Y-5938647D02*
X-42655389Y-5795790D01*
X-42655389Y-5795790D02*
X-42703008Y-5605314D01*
X-42703008Y-5605314D02*
X-42750627Y-5510076D01*
X-42750627Y-5510076D02*
X-42845865Y-5414838D01*
X-42845865Y-5414838D02*
X-42988722Y-5367219D01*
X-42988722Y-5367219D02*
X-43083960Y-5367219D01*
X-43083960Y-5367219D02*
X-43226817Y-5414838D01*
X-43226817Y-5414838D02*
X-43274436Y-5462457D01*
X-43560151Y-5367219D02*
X-44131579Y-5367219D01*
X-43845865Y-6367219D02*
X-43845865Y-5367219D01*
X-45274437Y-5367219D02*
X-45179199Y-5557695D01*
X-45655389Y-5462457D02*
X-45703008Y-5414838D01*
X-45703008Y-5414838D02*
X-45798246Y-5367219D01*
X-45798246Y-5367219D02*
X-46036341Y-5367219D01*
X-46036341Y-5367219D02*
X-46131579Y-5414838D01*
X-46131579Y-5414838D02*
X-46179198Y-5462457D01*
X-46179198Y-5462457D02*
X-46226817Y-5557695D01*
X-46226817Y-5557695D02*
X-46226817Y-5652933D01*
X-46226817Y-5652933D02*
X-46179198Y-5795790D01*
X-46179198Y-5795790D02*
X-45607770Y-6367219D01*
X-45607770Y-6367219D02*
X-46226817Y-6367219D01*
X-47131579Y-5367219D02*
X-46655389Y-5367219D01*
X-46655389Y-5367219D02*
X-46607770Y-5843409D01*
X-46607770Y-5843409D02*
X-46655389Y-5795790D01*
X-46655389Y-5795790D02*
X-46750627Y-5748171D01*
X-46750627Y-5748171D02*
X-46988722Y-5748171D01*
X-46988722Y-5748171D02*
X-47083960Y-5795790D01*
X-47083960Y-5795790D02*
X-47131579Y-5843409D01*
X-47131579Y-5843409D02*
X-47179198Y-5938647D01*
X-47179198Y-5938647D02*
X-47179198Y-6176742D01*
X-47179198Y-6176742D02*
X-47131579Y-6271980D01*
X-47131579Y-6271980D02*
X-47083960Y-6319600D01*
X-47083960Y-6319600D02*
X-46988722Y-6367219D01*
X-46988722Y-6367219D02*
X-46750627Y-6367219D01*
X-46750627Y-6367219D02*
X-46655389Y-6319600D01*
X-46655389Y-6319600D02*
X-46607770Y-6271980D01*
X-27301905Y-8904600D02*
X-27444762Y-8952219D01*
X-27444762Y-8952219D02*
X-27682857Y-8952219D01*
X-27682857Y-8952219D02*
X-27778095Y-8904600D01*
X-27778095Y-8904600D02*
X-27825714Y-8856980D01*
X-27825714Y-8856980D02*
X-27873333Y-8761742D01*
X-27873333Y-8761742D02*
X-27873333Y-8666504D01*
X-27873333Y-8666504D02*
X-27825714Y-8571266D01*
X-27825714Y-8571266D02*
X-27778095Y-8523647D01*
X-27778095Y-8523647D02*
X-27682857Y-8476028D01*
X-27682857Y-8476028D02*
X-27492381Y-8428409D01*
X-27492381Y-8428409D02*
X-27397143Y-8380790D01*
X-27397143Y-8380790D02*
X-27349524Y-8333171D01*
X-27349524Y-8333171D02*
X-27301905Y-8237933D01*
X-27301905Y-8237933D02*
X-27301905Y-8142695D01*
X-27301905Y-8142695D02*
X-27349524Y-8047457D01*
X-27349524Y-8047457D02*
X-27397143Y-7999838D01*
X-27397143Y-7999838D02*
X-27492381Y-7952219D01*
X-27492381Y-7952219D02*
X-27730476Y-7952219D01*
X-27730476Y-7952219D02*
X-27873333Y-7999838D01*
X-28301905Y-8428409D02*
X-28635238Y-8428409D01*
X-28778095Y-8952219D02*
X-28301905Y-8952219D01*
X-28301905Y-8952219D02*
X-28301905Y-7952219D01*
X-28301905Y-7952219D02*
X-28778095Y-7952219D01*
X-29206667Y-8952219D02*
X-29206667Y-7952219D01*
X-29206667Y-7952219D02*
X-29778095Y-8952219D01*
X-29778095Y-8952219D02*
X-29778095Y-7952219D01*
X-30206667Y-8904600D02*
X-30349524Y-8952219D01*
X-30349524Y-8952219D02*
X-30587619Y-8952219D01*
X-30587619Y-8952219D02*
X-30682857Y-8904600D01*
X-30682857Y-8904600D02*
X-30730476Y-8856980D01*
X-30730476Y-8856980D02*
X-30778095Y-8761742D01*
X-30778095Y-8761742D02*
X-30778095Y-8666504D01*
X-30778095Y-8666504D02*
X-30730476Y-8571266D01*
X-30730476Y-8571266D02*
X-30682857Y-8523647D01*
X-30682857Y-8523647D02*
X-30587619Y-8476028D01*
X-30587619Y-8476028D02*
X-30397143Y-8428409D01*
X-30397143Y-8428409D02*
X-30301905Y-8380790D01*
X-30301905Y-8380790D02*
X-30254286Y-8333171D01*
X-30254286Y-8333171D02*
X-30206667Y-8237933D01*
X-30206667Y-8237933D02*
X-30206667Y-8142695D01*
X-30206667Y-8142695D02*
X-30254286Y-8047457D01*
X-30254286Y-8047457D02*
X-30301905Y-7999838D01*
X-30301905Y-7999838D02*
X-30397143Y-7952219D01*
X-30397143Y-7952219D02*
X-30635238Y-7952219D01*
X-30635238Y-7952219D02*
X-30778095Y-7999838D01*
X-31397143Y-7952219D02*
X-31587619Y-7952219D01*
X-31587619Y-7952219D02*
X-31682857Y-7999838D01*
X-31682857Y-7999838D02*
X-31778095Y-8095076D01*
X-31778095Y-8095076D02*
X-31825714Y-8285552D01*
X-31825714Y-8285552D02*
X-31825714Y-8618885D01*
X-31825714Y-8618885D02*
X-31778095Y-8809361D01*
X-31778095Y-8809361D02*
X-31682857Y-8904600D01*
X-31682857Y-8904600D02*
X-31587619Y-8952219D01*
X-31587619Y-8952219D02*
X-31397143Y-8952219D01*
X-31397143Y-8952219D02*
X-31301905Y-8904600D01*
X-31301905Y-8904600D02*
X-31206667Y-8809361D01*
X-31206667Y-8809361D02*
X-31159048Y-8618885D01*
X-31159048Y-8618885D02*
X-31159048Y-8285552D01*
X-31159048Y-8285552D02*
X-31206667Y-8095076D01*
X-31206667Y-8095076D02*
X-31301905Y-7999838D01*
X-31301905Y-7999838D02*
X-31397143Y-7952219D01*
X-32825714Y-8952219D02*
X-32492381Y-8476028D01*
X-32254286Y-8952219D02*
X-32254286Y-7952219D01*
X-32254286Y-7952219D02*
X-32635238Y-7952219D01*
X-32635238Y-7952219D02*
X-32730476Y-7999838D01*
X-32730476Y-7999838D02*
X-32778095Y-8047457D01*
X-32778095Y-8047457D02*
X-32825714Y-8142695D01*
X-32825714Y-8142695D02*
X-32825714Y-8285552D01*
X-32825714Y-8285552D02*
X-32778095Y-8380790D01*
X-32778095Y-8380790D02*
X-32730476Y-8428409D01*
X-32730476Y-8428409D02*
X-32635238Y-8476028D01*
X-32635238Y-8476028D02*
X-32254286Y-8476028D01*
X-33778095Y-8952219D02*
X-33206667Y-8952219D01*
X-33492381Y-8952219D02*
X-33492381Y-7952219D01*
X-33492381Y-7952219D02*
X-33397143Y-8095076D01*
X-33397143Y-8095076D02*
X-33301905Y-8190314D01*
X-33301905Y-8190314D02*
X-33206667Y-8237933D01*
X-17904600Y-65976189D02*
X-17952219Y-65833332D01*
X-17952219Y-65833332D02*
X-17952219Y-65595237D01*
X-17952219Y-65595237D02*
X-17904600Y-65499999D01*
X-17904600Y-65499999D02*
X-17856980Y-65452380D01*
X-17856980Y-65452380D02*
X-17761742Y-65404761D01*
X-17761742Y-65404761D02*
X-17666504Y-65404761D01*
X-17666504Y-65404761D02*
X-17571266Y-65452380D01*
X-17571266Y-65452380D02*
X-17523647Y-65499999D01*
X-17523647Y-65499999D02*
X-17476028Y-65595237D01*
X-17476028Y-65595237D02*
X-17428409Y-65785713D01*
X-17428409Y-65785713D02*
X-17380790Y-65880951D01*
X-17380790Y-65880951D02*
X-17333171Y-65928570D01*
X-17333171Y-65928570D02*
X-17237933Y-65976189D01*
X-17237933Y-65976189D02*
X-17142695Y-65976189D01*
X-17142695Y-65976189D02*
X-17047457Y-65928570D01*
X-17047457Y-65928570D02*
X-16999838Y-65880951D01*
X-16999838Y-65880951D02*
X-16952219Y-65785713D01*
X-16952219Y-65785713D02*
X-16952219Y-65547618D01*
X-16952219Y-65547618D02*
X-16999838Y-65404761D01*
X-16952219Y-65071427D02*
X-17952219Y-64833332D01*
X-17952219Y-64833332D02*
X-17237933Y-64642856D01*
X-17237933Y-64642856D02*
X-17952219Y-64452380D01*
X-17952219Y-64452380D02*
X-16952219Y-64214285D01*
X-17952219Y-63833332D02*
X-16952219Y-63833332D01*
X-16952219Y-63499999D02*
X-16952219Y-62928571D01*
X-17952219Y-63214285D02*
X-16952219Y-63214285D01*
X-17856980Y-62023809D02*
X-17904600Y-62071428D01*
X-17904600Y-62071428D02*
X-17952219Y-62214285D01*
X-17952219Y-62214285D02*
X-17952219Y-62309523D01*
X-17952219Y-62309523D02*
X-17904600Y-62452380D01*
X-17904600Y-62452380D02*
X-17809361Y-62547618D01*
X-17809361Y-62547618D02*
X-17714123Y-62595237D01*
X-17714123Y-62595237D02*
X-17523647Y-62642856D01*
X-17523647Y-62642856D02*
X-17380790Y-62642856D01*
X-17380790Y-62642856D02*
X-17190314Y-62595237D01*
X-17190314Y-62595237D02*
X-17095076Y-62547618D01*
X-17095076Y-62547618D02*
X-16999838Y-62452380D01*
X-16999838Y-62452380D02*
X-16952219Y-62309523D01*
X-16952219Y-62309523D02*
X-16952219Y-62214285D01*
X-16952219Y-62214285D02*
X-16999838Y-62071428D01*
X-16999838Y-62071428D02*
X-17047457Y-62023809D01*
X-17952219Y-61595237D02*
X-16952219Y-61595237D01*
X-17428409Y-61595237D02*
X-17428409Y-61023809D01*
X-17952219Y-61023809D02*
X-16952219Y-61023809D01*
X-17952219Y-60023809D02*
X-17952219Y-60595237D01*
X-17952219Y-60309523D02*
X-16952219Y-60309523D01*
X-16952219Y-60309523D02*
X-17095076Y-60404761D01*
X-17095076Y-60404761D02*
X-17190314Y-60499999D01*
X-17190314Y-60499999D02*
X-17237933Y-60595237D01*
X-49005556Y-67245280D02*
X-49005556Y-68245280D01*
X-49005556Y-68245280D02*
X-48672223Y-67530995D01*
X-48672223Y-67530995D02*
X-48338890Y-68245280D01*
X-48338890Y-68245280D02*
X-48338890Y-67245280D01*
X-47862699Y-67769090D02*
X-47529366Y-67769090D01*
X-47386509Y-67245280D02*
X-47862699Y-67245280D01*
X-47862699Y-67245280D02*
X-47862699Y-68245280D01*
X-47862699Y-68245280D02*
X-47386509Y-68245280D01*
X-47005556Y-67530995D02*
X-46529366Y-67530995D01*
X-47100794Y-67245280D02*
X-46767461Y-68245280D01*
X-46767461Y-68245280D02*
X-46434128Y-67245280D01*
X-46148413Y-67292900D02*
X-46005556Y-67245280D01*
X-46005556Y-67245280D02*
X-45767461Y-67245280D01*
X-45767461Y-67245280D02*
X-45672223Y-67292900D01*
X-45672223Y-67292900D02*
X-45624604Y-67340519D01*
X-45624604Y-67340519D02*
X-45576985Y-67435757D01*
X-45576985Y-67435757D02*
X-45576985Y-67530995D01*
X-45576985Y-67530995D02*
X-45624604Y-67626233D01*
X-45624604Y-67626233D02*
X-45672223Y-67673852D01*
X-45672223Y-67673852D02*
X-45767461Y-67721471D01*
X-45767461Y-67721471D02*
X-45957937Y-67769090D01*
X-45957937Y-67769090D02*
X-46053175Y-67816709D01*
X-46053175Y-67816709D02*
X-46100794Y-67864328D01*
X-46100794Y-67864328D02*
X-46148413Y-67959566D01*
X-46148413Y-67959566D02*
X-46148413Y-68054804D01*
X-46148413Y-68054804D02*
X-46100794Y-68150042D01*
X-46100794Y-68150042D02*
X-46053175Y-68197661D01*
X-46053175Y-68197661D02*
X-45957937Y-68245280D01*
X-45957937Y-68245280D02*
X-45719842Y-68245280D01*
X-45719842Y-68245280D02*
X-45576985Y-68197661D01*
X-45148413Y-68245280D02*
X-45148413Y-67435757D01*
X-45148413Y-67435757D02*
X-45100794Y-67340519D01*
X-45100794Y-67340519D02*
X-45053175Y-67292900D01*
X-45053175Y-67292900D02*
X-44957937Y-67245280D01*
X-44957937Y-67245280D02*
X-44767461Y-67245280D01*
X-44767461Y-67245280D02*
X-44672223Y-67292900D01*
X-44672223Y-67292900D02*
X-44624604Y-67340519D01*
X-44624604Y-67340519D02*
X-44576985Y-67435757D01*
X-44576985Y-67435757D02*
X-44576985Y-68245280D01*
X-43529366Y-67245280D02*
X-43862699Y-67721471D01*
X-44100794Y-67245280D02*
X-44100794Y-68245280D01*
X-44100794Y-68245280D02*
X-43719842Y-68245280D01*
X-43719842Y-68245280D02*
X-43624604Y-68197661D01*
X-43624604Y-68197661D02*
X-43576985Y-68150042D01*
X-43576985Y-68150042D02*
X-43529366Y-68054804D01*
X-43529366Y-68054804D02*
X-43529366Y-67911947D01*
X-43529366Y-67911947D02*
X-43576985Y-67816709D01*
X-43576985Y-67816709D02*
X-43624604Y-67769090D01*
X-43624604Y-67769090D02*
X-43719842Y-67721471D01*
X-43719842Y-67721471D02*
X-44100794Y-67721471D01*
X-43100794Y-67769090D02*
X-42767461Y-67769090D01*
X-42624604Y-67245280D02*
X-43100794Y-67245280D01*
X-43100794Y-67245280D02*
X-43100794Y-68245280D01*
X-43100794Y-68245280D02*
X-42624604Y-68245280D01*
X-41672223Y-67245280D02*
X-42243651Y-67245280D01*
X-41957937Y-67245280D02*
X-41957937Y-68245280D01*
X-41957937Y-68245280D02*
X-42053175Y-68102423D01*
X-42053175Y-68102423D02*
X-42148413Y-68007185D01*
X-42148413Y-68007185D02*
X-42243651Y-67959566D01*
X-39719999Y-37798409D02*
X-39862856Y-37846028D01*
X-39862856Y-37846028D02*
X-39910475Y-37893647D01*
X-39910475Y-37893647D02*
X-39958094Y-37988885D01*
X-39958094Y-37988885D02*
X-39958094Y-38131742D01*
X-39958094Y-38131742D02*
X-39910475Y-38226980D01*
X-39910475Y-38226980D02*
X-39862856Y-38274600D01*
X-39862856Y-38274600D02*
X-39767618Y-38322219D01*
X-39767618Y-38322219D02*
X-39386666Y-38322219D01*
X-39386666Y-38322219D02*
X-39386666Y-37322219D01*
X-39386666Y-37322219D02*
X-39719999Y-37322219D01*
X-39719999Y-37322219D02*
X-39815237Y-37369838D01*
X-39815237Y-37369838D02*
X-39862856Y-37417457D01*
X-39862856Y-37417457D02*
X-39910475Y-37512695D01*
X-39910475Y-37512695D02*
X-39910475Y-37607933D01*
X-39910475Y-37607933D02*
X-39862856Y-37703171D01*
X-39862856Y-37703171D02*
X-39815237Y-37750790D01*
X-39815237Y-37750790D02*
X-39719999Y-37798409D01*
X-39719999Y-37798409D02*
X-39386666Y-37798409D01*
X-40386666Y-37322219D02*
X-40386666Y-38131742D01*
X-40386666Y-38131742D02*
X-40434285Y-38226980D01*
X-40434285Y-38226980D02*
X-40481904Y-38274600D01*
X-40481904Y-38274600D02*
X-40577142Y-38322219D01*
X-40577142Y-38322219D02*
X-40767618Y-38322219D01*
X-40767618Y-38322219D02*
X-40862856Y-38274600D01*
X-40862856Y-38274600D02*
X-40910475Y-38226980D01*
X-40910475Y-38226980D02*
X-40958094Y-38131742D01*
X-40958094Y-38131742D02*
X-40958094Y-37322219D01*
X-41339047Y-37322219D02*
X-42005713Y-37322219D01*
X-42005713Y-37322219D02*
X-41339047Y-38322219D01*
X-41339047Y-38322219D02*
X-42005713Y-38322219D01*
X-42291428Y-37322219D02*
X-42958094Y-37322219D01*
X-42958094Y-37322219D02*
X-42291428Y-38322219D01*
X-42291428Y-38322219D02*
X-42958094Y-38322219D01*
X-43339047Y-37798409D02*
X-43672380Y-37798409D01*
X-43815237Y-38322219D02*
X-43339047Y-38322219D01*
X-43339047Y-38322219D02*
X-43339047Y-37322219D01*
X-43339047Y-37322219D02*
X-43815237Y-37322219D01*
X-44815237Y-38322219D02*
X-44481904Y-37846028D01*
X-44243809Y-38322219D02*
X-44243809Y-37322219D01*
X-44243809Y-37322219D02*
X-44624761Y-37322219D01*
X-44624761Y-37322219D02*
X-44719999Y-37369838D01*
X-44719999Y-37369838D02*
X-44767618Y-37417457D01*
X-44767618Y-37417457D02*
X-44815237Y-37512695D01*
X-44815237Y-37512695D02*
X-44815237Y-37655552D01*
X-44815237Y-37655552D02*
X-44767618Y-37750790D01*
X-44767618Y-37750790D02*
X-44719999Y-37798409D01*
X-44719999Y-37798409D02*
X-44624761Y-37846028D01*
X-44624761Y-37846028D02*
X-44243809Y-37846028D01*
X-45767618Y-38322219D02*
X-45196190Y-38322219D01*
X-45481904Y-38322219D02*
X-45481904Y-37322219D01*
X-45481904Y-37322219D02*
X-45386666Y-37465076D01*
X-45386666Y-37465076D02*
X-45291428Y-37560314D01*
X-45291428Y-37560314D02*
X-45196190Y-37607933D01*
X-44128214Y-49758409D02*
X-44271071Y-49806028D01*
X-44271071Y-49806028D02*
X-44318690Y-49853647D01*
X-44318690Y-49853647D02*
X-44366309Y-49948885D01*
X-44366309Y-49948885D02*
X-44366309Y-50091742D01*
X-44366309Y-50091742D02*
X-44318690Y-50186980D01*
X-44318690Y-50186980D02*
X-44271071Y-50234600D01*
X-44271071Y-50234600D02*
X-44175833Y-50282219D01*
X-44175833Y-50282219D02*
X-43794881Y-50282219D01*
X-43794881Y-50282219D02*
X-43794881Y-49282219D01*
X-43794881Y-49282219D02*
X-44128214Y-49282219D01*
X-44128214Y-49282219D02*
X-44223452Y-49329838D01*
X-44223452Y-49329838D02*
X-44271071Y-49377457D01*
X-44271071Y-49377457D02*
X-44318690Y-49472695D01*
X-44318690Y-49472695D02*
X-44318690Y-49567933D01*
X-44318690Y-49567933D02*
X-44271071Y-49663171D01*
X-44271071Y-49663171D02*
X-44223452Y-49710790D01*
X-44223452Y-49710790D02*
X-44128214Y-49758409D01*
X-44128214Y-49758409D02*
X-43794881Y-49758409D01*
X-44747262Y-49996504D02*
X-45223452Y-49996504D01*
X-44652024Y-50282219D02*
X-44985357Y-49282219D01*
X-44985357Y-49282219D02*
X-45318690Y-50282219D01*
X-45509167Y-49282219D02*
X-46080595Y-49282219D01*
X-45794881Y-50282219D02*
X-45794881Y-49282219D01*
X-46937738Y-50282219D02*
X-46366310Y-50282219D01*
X-46652024Y-50282219D02*
X-46652024Y-49282219D01*
X-46652024Y-49282219D02*
X-46556786Y-49425076D01*
X-46556786Y-49425076D02*
X-46461548Y-49520314D01*
X-46461548Y-49520314D02*
X-46366310Y-49567933D01*
X-17747618Y-6412219D02*
X-17842856Y-6412219D01*
X-17842856Y-6412219D02*
X-17938094Y-6459838D01*
X-17938094Y-6459838D02*
X-17985713Y-6507457D01*
X-17985713Y-6507457D02*
X-18033332Y-6602695D01*
X-18033332Y-6602695D02*
X-18080951Y-6793171D01*
X-18080951Y-6793171D02*
X-18080951Y-7031266D01*
X-18080951Y-7031266D02*
X-18033332Y-7221742D01*
X-18033332Y-7221742D02*
X-17985713Y-7316980D01*
X-17985713Y-7316980D02*
X-17938094Y-7364600D01*
X-17938094Y-7364600D02*
X-17842856Y-7412219D01*
X-17842856Y-7412219D02*
X-17747618Y-7412219D01*
X-17747618Y-7412219D02*
X-17652380Y-7364600D01*
X-17652380Y-7364600D02*
X-17604761Y-7316980D01*
X-17604761Y-7316980D02*
X-17557142Y-7221742D01*
X-17557142Y-7221742D02*
X-17509523Y-7031266D01*
X-17509523Y-7031266D02*
X-17509523Y-6793171D01*
X-17509523Y-6793171D02*
X-17557142Y-6602695D01*
X-17557142Y-6602695D02*
X-17604761Y-6507457D01*
X-17604761Y-6507457D02*
X-17652380Y-6459838D01*
X-17652380Y-6459838D02*
X-17747618Y-6412219D01*
X-18509523Y-7316980D02*
X-18557142Y-7364600D01*
X-18557142Y-7364600D02*
X-18509523Y-7412219D01*
X-18509523Y-7412219D02*
X-18461904Y-7364600D01*
X-18461904Y-7364600D02*
X-18509523Y-7316980D01*
X-18509523Y-7316980D02*
X-18509523Y-7412219D01*
X-19033332Y-7412219D02*
X-19223808Y-7412219D01*
X-19223808Y-7412219D02*
X-19319046Y-7364600D01*
X-19319046Y-7364600D02*
X-19366665Y-7316980D01*
X-19366665Y-7316980D02*
X-19461903Y-7174123D01*
X-19461903Y-7174123D02*
X-19509522Y-6983647D01*
X-19509522Y-6983647D02*
X-19509522Y-6602695D01*
X-19509522Y-6602695D02*
X-19461903Y-6507457D01*
X-19461903Y-6507457D02*
X-19414284Y-6459838D01*
X-19414284Y-6459838D02*
X-19319046Y-6412219D01*
X-19319046Y-6412219D02*
X-19128570Y-6412219D01*
X-19128570Y-6412219D02*
X-19033332Y-6459838D01*
X-19033332Y-6459838D02*
X-18985713Y-6507457D01*
X-18985713Y-6507457D02*
X-18938094Y-6602695D01*
X-18938094Y-6602695D02*
X-18938094Y-6840790D01*
X-18938094Y-6840790D02*
X-18985713Y-6936028D01*
X-18985713Y-6936028D02*
X-19033332Y-6983647D01*
X-19033332Y-6983647D02*
X-19128570Y-7031266D01*
X-19128570Y-7031266D02*
X-19319046Y-7031266D01*
X-19319046Y-7031266D02*
X-19414284Y-6983647D01*
X-19414284Y-6983647D02*
X-19461903Y-6936028D01*
X-19461903Y-6936028D02*
X-19509522Y-6840790D01*
X-20366665Y-6412219D02*
X-20176189Y-6412219D01*
X-20176189Y-6412219D02*
X-20080951Y-6459838D01*
X-20080951Y-6459838D02*
X-20033332Y-6507457D01*
X-20033332Y-6507457D02*
X-19938094Y-6650314D01*
X-19938094Y-6650314D02*
X-19890475Y-6840790D01*
X-19890475Y-6840790D02*
X-19890475Y-7221742D01*
X-19890475Y-7221742D02*
X-19938094Y-7316980D01*
X-19938094Y-7316980D02*
X-19985713Y-7364600D01*
X-19985713Y-7364600D02*
X-20080951Y-7412219D01*
X-20080951Y-7412219D02*
X-20271427Y-7412219D01*
X-20271427Y-7412219D02*
X-20366665Y-7364600D01*
X-20366665Y-7364600D02*
X-20414284Y-7316980D01*
X-20414284Y-7316980D02*
X-20461903Y-7221742D01*
X-20461903Y-7221742D02*
X-20461903Y-6983647D01*
X-20461903Y-6983647D02*
X-20414284Y-6888409D01*
X-20414284Y-6888409D02*
X-20366665Y-6840790D01*
X-20366665Y-6840790D02*
X-20271427Y-6793171D01*
X-20271427Y-6793171D02*
X-20080951Y-6793171D01*
X-20080951Y-6793171D02*
X-19985713Y-6840790D01*
X-19985713Y-6840790D02*
X-19938094Y-6888409D01*
X-19938094Y-6888409D02*
X-19890475Y-6983647D01*
X-20842856Y-6412219D02*
X-20842856Y-6602695D01*
X-21223808Y-6412219D02*
X-21223808Y-6602695D01*
X-22604761Y-6412219D02*
X-22795237Y-6412219D01*
X-22795237Y-6412219D02*
X-22890475Y-6459838D01*
X-22890475Y-6459838D02*
X-22985713Y-6555076D01*
X-22985713Y-6555076D02*
X-23033332Y-6745552D01*
X-23033332Y-6745552D02*
X-23033332Y-7078885D01*
X-23033332Y-7078885D02*
X-22985713Y-7269361D01*
X-22985713Y-7269361D02*
X-22890475Y-7364600D01*
X-22890475Y-7364600D02*
X-22795237Y-7412219D01*
X-22795237Y-7412219D02*
X-22604761Y-7412219D01*
X-22604761Y-7412219D02*
X-22509523Y-7364600D01*
X-22509523Y-7364600D02*
X-22414285Y-7269361D01*
X-22414285Y-7269361D02*
X-22366666Y-7078885D01*
X-22366666Y-7078885D02*
X-22366666Y-6745552D01*
X-22366666Y-6745552D02*
X-22414285Y-6555076D01*
X-22414285Y-6555076D02*
X-22509523Y-6459838D01*
X-22509523Y-6459838D02*
X-22604761Y-6412219D01*
X-23938094Y-7412219D02*
X-23461904Y-7412219D01*
X-23461904Y-7412219D02*
X-23461904Y-6412219D01*
X-24271428Y-6888409D02*
X-24604761Y-6888409D01*
X-24747618Y-7412219D02*
X-24271428Y-7412219D01*
X-24271428Y-7412219D02*
X-24271428Y-6412219D01*
X-24271428Y-6412219D02*
X-24747618Y-6412219D01*
X-25176190Y-7412219D02*
X-25176190Y-6412219D01*
X-25176190Y-6412219D02*
X-25414285Y-6412219D01*
X-25414285Y-6412219D02*
X-25557142Y-6459838D01*
X-25557142Y-6459838D02*
X-25652380Y-6555076D01*
X-25652380Y-6555076D02*
X-25699999Y-6650314D01*
X-25699999Y-6650314D02*
X-25747618Y-6840790D01*
X-25747618Y-6840790D02*
X-25747618Y-6983647D01*
X-25747618Y-6983647D02*
X-25699999Y-7174123D01*
X-25699999Y-7174123D02*
X-25652380Y-7269361D01*
X-25652380Y-7269361D02*
X-25557142Y-7364600D01*
X-25557142Y-7364600D02*
X-25414285Y-7412219D01*
X-25414285Y-7412219D02*
X-25176190Y-7412219D01*
X-26938095Y-7412219D02*
X-26938095Y-6412219D01*
X-26938095Y-6412219D02*
X-27176190Y-6412219D01*
X-27176190Y-6412219D02*
X-27319047Y-6459838D01*
X-27319047Y-6459838D02*
X-27414285Y-6555076D01*
X-27414285Y-6555076D02*
X-27461904Y-6650314D01*
X-27461904Y-6650314D02*
X-27509523Y-6840790D01*
X-27509523Y-6840790D02*
X-27509523Y-6983647D01*
X-27509523Y-6983647D02*
X-27461904Y-7174123D01*
X-27461904Y-7174123D02*
X-27414285Y-7269361D01*
X-27414285Y-7269361D02*
X-27319047Y-7364600D01*
X-27319047Y-7364600D02*
X-27176190Y-7412219D01*
X-27176190Y-7412219D02*
X-26938095Y-7412219D01*
X-27938095Y-7412219D02*
X-27938095Y-6745552D01*
X-27938095Y-6412219D02*
X-27890476Y-6459838D01*
X-27890476Y-6459838D02*
X-27938095Y-6507457D01*
X-27938095Y-6507457D02*
X-27985714Y-6459838D01*
X-27985714Y-6459838D02*
X-27938095Y-6412219D01*
X-27938095Y-6412219D02*
X-27938095Y-6507457D01*
X-28366666Y-7364600D02*
X-28461904Y-7412219D01*
X-28461904Y-7412219D02*
X-28652380Y-7412219D01*
X-28652380Y-7412219D02*
X-28747618Y-7364600D01*
X-28747618Y-7364600D02*
X-28795237Y-7269361D01*
X-28795237Y-7269361D02*
X-28795237Y-7221742D01*
X-28795237Y-7221742D02*
X-28747618Y-7126504D01*
X-28747618Y-7126504D02*
X-28652380Y-7078885D01*
X-28652380Y-7078885D02*
X-28509523Y-7078885D01*
X-28509523Y-7078885D02*
X-28414285Y-7031266D01*
X-28414285Y-7031266D02*
X-28366666Y-6936028D01*
X-28366666Y-6936028D02*
X-28366666Y-6888409D01*
X-28366666Y-6888409D02*
X-28414285Y-6793171D01*
X-28414285Y-6793171D02*
X-28509523Y-6745552D01*
X-28509523Y-6745552D02*
X-28652380Y-6745552D01*
X-28652380Y-6745552D02*
X-28747618Y-6793171D01*
X-29223809Y-6745552D02*
X-29223809Y-7745552D01*
X-29223809Y-6793171D02*
X-29319047Y-6745552D01*
X-29319047Y-6745552D02*
X-29509523Y-6745552D01*
X-29509523Y-6745552D02*
X-29604761Y-6793171D01*
X-29604761Y-6793171D02*
X-29652380Y-6840790D01*
X-29652380Y-6840790D02*
X-29699999Y-6936028D01*
X-29699999Y-6936028D02*
X-29699999Y-7221742D01*
X-29699999Y-7221742D02*
X-29652380Y-7316980D01*
X-29652380Y-7316980D02*
X-29604761Y-7364600D01*
X-29604761Y-7364600D02*
X-29509523Y-7412219D01*
X-29509523Y-7412219D02*
X-29319047Y-7412219D01*
X-29319047Y-7412219D02*
X-29223809Y-7364600D01*
X-30271428Y-7412219D02*
X-30176190Y-7364600D01*
X-30176190Y-7364600D02*
X-30128571Y-7269361D01*
X-30128571Y-7269361D02*
X-30128571Y-6412219D01*
X-31080952Y-7412219D02*
X-31080952Y-6888409D01*
X-31080952Y-6888409D02*
X-31033333Y-6793171D01*
X-31033333Y-6793171D02*
X-30938095Y-6745552D01*
X-30938095Y-6745552D02*
X-30747619Y-6745552D01*
X-30747619Y-6745552D02*
X-30652381Y-6793171D01*
X-31080952Y-7364600D02*
X-30985714Y-7412219D01*
X-30985714Y-7412219D02*
X-30747619Y-7412219D01*
X-30747619Y-7412219D02*
X-30652381Y-7364600D01*
X-30652381Y-7364600D02*
X-30604762Y-7269361D01*
X-30604762Y-7269361D02*
X-30604762Y-7174123D01*
X-30604762Y-7174123D02*
X-30652381Y-7078885D01*
X-30652381Y-7078885D02*
X-30747619Y-7031266D01*
X-30747619Y-7031266D02*
X-30985714Y-7031266D01*
X-30985714Y-7031266D02*
X-31080952Y-6983647D01*
X-31461905Y-6745552D02*
X-31700000Y-7412219D01*
X-31938095Y-6745552D02*
X-31700000Y-7412219D01*
X-31700000Y-7412219D02*
X-31604762Y-7650314D01*
X-31604762Y-7650314D02*
X-31557143Y-7697933D01*
X-31557143Y-7697933D02*
X-31461905Y-7745552D01*
X-22238095Y-36282219D02*
X-22238095Y-37091742D01*
X-22238095Y-37091742D02*
X-22285714Y-37186980D01*
X-22285714Y-37186980D02*
X-22333333Y-37234600D01*
X-22333333Y-37234600D02*
X-22428571Y-37282219D01*
X-22428571Y-37282219D02*
X-22619047Y-37282219D01*
X-22619047Y-37282219D02*
X-22714285Y-37234600D01*
X-22714285Y-37234600D02*
X-22761904Y-37186980D01*
X-22761904Y-37186980D02*
X-22809523Y-37091742D01*
X-22809523Y-37091742D02*
X-22809523Y-36282219D01*
X-23809523Y-37282219D02*
X-23238095Y-37282219D01*
X-23523809Y-37282219D02*
X-23523809Y-36282219D01*
X-23523809Y-36282219D02*
X-23428571Y-36425076D01*
X-23428571Y-36425076D02*
X-23333333Y-36520314D01*
X-23333333Y-36520314D02*
X-23238095Y-36567933D01*
X-17738094Y-67238409D02*
X-17880951Y-67286028D01*
X-17880951Y-67286028D02*
X-17928570Y-67333647D01*
X-17928570Y-67333647D02*
X-17976189Y-67428885D01*
X-17976189Y-67428885D02*
X-17976189Y-67571742D01*
X-17976189Y-67571742D02*
X-17928570Y-67666980D01*
X-17928570Y-67666980D02*
X-17880951Y-67714600D01*
X-17880951Y-67714600D02*
X-17785713Y-67762219D01*
X-17785713Y-67762219D02*
X-17404761Y-67762219D01*
X-17404761Y-67762219D02*
X-17404761Y-66762219D01*
X-17404761Y-66762219D02*
X-17738094Y-66762219D01*
X-17738094Y-66762219D02*
X-17833332Y-66809838D01*
X-17833332Y-66809838D02*
X-17880951Y-66857457D01*
X-17880951Y-66857457D02*
X-17928570Y-66952695D01*
X-17928570Y-66952695D02*
X-17928570Y-67047933D01*
X-17928570Y-67047933D02*
X-17880951Y-67143171D01*
X-17880951Y-67143171D02*
X-17833332Y-67190790D01*
X-17833332Y-67190790D02*
X-17738094Y-67238409D01*
X-17738094Y-67238409D02*
X-17404761Y-67238409D01*
X-18357142Y-67476504D02*
X-18833332Y-67476504D01*
X-18261904Y-67762219D02*
X-18595237Y-66762219D01*
X-18595237Y-66762219D02*
X-18928570Y-67762219D01*
X-19119047Y-66762219D02*
X-19690475Y-66762219D01*
X-19404761Y-67762219D02*
X-19404761Y-66762219D01*
X-19880952Y-66762219D02*
X-20452380Y-66762219D01*
X-20166666Y-67762219D02*
X-20166666Y-66762219D01*
X-20785714Y-67238409D02*
X-21119047Y-67238409D01*
X-21261904Y-67762219D02*
X-20785714Y-67762219D01*
X-20785714Y-67762219D02*
X-20785714Y-66762219D01*
X-20785714Y-66762219D02*
X-21261904Y-66762219D01*
X-22261904Y-67762219D02*
X-21928571Y-67286028D01*
X-21690476Y-67762219D02*
X-21690476Y-66762219D01*
X-21690476Y-66762219D02*
X-22071428Y-66762219D01*
X-22071428Y-66762219D02*
X-22166666Y-66809838D01*
X-22166666Y-66809838D02*
X-22214285Y-66857457D01*
X-22214285Y-66857457D02*
X-22261904Y-66952695D01*
X-22261904Y-66952695D02*
X-22261904Y-67095552D01*
X-22261904Y-67095552D02*
X-22214285Y-67190790D01*
X-22214285Y-67190790D02*
X-22166666Y-67238409D01*
X-22166666Y-67238409D02*
X-22071428Y-67286028D01*
X-22071428Y-67286028D02*
X-21690476Y-67286028D01*
X-22880952Y-67286028D02*
X-22880952Y-67762219D01*
X-22547619Y-66762219D02*
X-22880952Y-67286028D01*
X-22880952Y-67286028D02*
X-23214285Y-66762219D01*
X-23309524Y-67857457D02*
X-24071428Y-67857457D01*
X-24880952Y-67666980D02*
X-24833333Y-67714600D01*
X-24833333Y-67714600D02*
X-24690476Y-67762219D01*
X-24690476Y-67762219D02*
X-24595238Y-67762219D01*
X-24595238Y-67762219D02*
X-24452381Y-67714600D01*
X-24452381Y-67714600D02*
X-24357143Y-67619361D01*
X-24357143Y-67619361D02*
X-24309524Y-67524123D01*
X-24309524Y-67524123D02*
X-24261905Y-67333647D01*
X-24261905Y-67333647D02*
X-24261905Y-67190790D01*
X-24261905Y-67190790D02*
X-24309524Y-67000314D01*
X-24309524Y-67000314D02*
X-24357143Y-66905076D01*
X-24357143Y-66905076D02*
X-24452381Y-66809838D01*
X-24452381Y-66809838D02*
X-24595238Y-66762219D01*
X-24595238Y-66762219D02*
X-24690476Y-66762219D01*
X-24690476Y-66762219D02*
X-24833333Y-66809838D01*
X-24833333Y-66809838D02*
X-24880952Y-66857457D01*
X-25309524Y-67762219D02*
X-25309524Y-66762219D01*
X-25309524Y-67238409D02*
X-25880952Y-67238409D01*
X-25880952Y-67762219D02*
X-25880952Y-66762219D01*
X-26309524Y-67476504D02*
X-26785714Y-67476504D01*
X-26214286Y-67762219D02*
X-26547619Y-66762219D01*
X-26547619Y-66762219D02*
X-26880952Y-67762219D01*
X-27785714Y-67762219D02*
X-27452381Y-67286028D01*
X-27214286Y-67762219D02*
X-27214286Y-66762219D01*
X-27214286Y-66762219D02*
X-27595238Y-66762219D01*
X-27595238Y-66762219D02*
X-27690476Y-66809838D01*
X-27690476Y-66809838D02*
X-27738095Y-66857457D01*
X-27738095Y-66857457D02*
X-27785714Y-66952695D01*
X-27785714Y-66952695D02*
X-27785714Y-67095552D01*
X-27785714Y-67095552D02*
X-27738095Y-67190790D01*
X-27738095Y-67190790D02*
X-27690476Y-67238409D01*
X-27690476Y-67238409D02*
X-27595238Y-67286028D01*
X-27595238Y-67286028D02*
X-27214286Y-67286028D01*
X-28738095Y-66809838D02*
X-28642857Y-66762219D01*
X-28642857Y-66762219D02*
X-28500000Y-66762219D01*
X-28500000Y-66762219D02*
X-28357143Y-66809838D01*
X-28357143Y-66809838D02*
X-28261905Y-66905076D01*
X-28261905Y-66905076D02*
X-28214286Y-67000314D01*
X-28214286Y-67000314D02*
X-28166667Y-67190790D01*
X-28166667Y-67190790D02*
X-28166667Y-67333647D01*
X-28166667Y-67333647D02*
X-28214286Y-67524123D01*
X-28214286Y-67524123D02*
X-28261905Y-67619361D01*
X-28261905Y-67619361D02*
X-28357143Y-67714600D01*
X-28357143Y-67714600D02*
X-28500000Y-67762219D01*
X-28500000Y-67762219D02*
X-28595238Y-67762219D01*
X-28595238Y-67762219D02*
X-28738095Y-67714600D01*
X-28738095Y-67714600D02*
X-28785714Y-67666980D01*
X-28785714Y-67666980D02*
X-28785714Y-67333647D01*
X-28785714Y-67333647D02*
X-28595238Y-67333647D01*
X-29214286Y-67238409D02*
X-29547619Y-67238409D01*
X-29690476Y-67762219D02*
X-29214286Y-67762219D01*
X-29214286Y-67762219D02*
X-29214286Y-66762219D01*
X-29214286Y-66762219D02*
X-29690476Y-66762219D01*
X-30690476Y-67762219D02*
X-30357143Y-67286028D01*
X-30119048Y-67762219D02*
X-30119048Y-66762219D01*
X-30119048Y-66762219D02*
X-30500000Y-66762219D01*
X-30500000Y-66762219D02*
X-30595238Y-66809838D01*
X-30595238Y-66809838D02*
X-30642857Y-66857457D01*
X-30642857Y-66857457D02*
X-30690476Y-66952695D01*
X-30690476Y-66952695D02*
X-30690476Y-67095552D01*
X-30690476Y-67095552D02*
X-30642857Y-67190790D01*
X-30642857Y-67190790D02*
X-30595238Y-67238409D01*
X-30595238Y-67238409D02*
X-30500000Y-67286028D01*
X-30500000Y-67286028D02*
X-30119048Y-67286028D01*
X-31642857Y-67762219D02*
X-31071429Y-67762219D01*
X-31357143Y-67762219D02*
X-31357143Y-66762219D01*
X-31357143Y-66762219D02*
X-31261905Y-66905076D01*
X-31261905Y-66905076D02*
X-31166667Y-67000314D01*
X-31166667Y-67000314D02*
X-31071429Y-67047933D01*
%TO.C,SENSOR1*%
D11*
X-36880000Y-9025400D02*
X-24880000Y-9025400D01*
X-24880000Y-26025400D01*
X-36880000Y-26025400D01*
X-36880000Y-9025400D01*
%TO.C,SWITCH1*%
X-28750000Y-65850000D02*
X-18250000Y-65850000D01*
X-18250000Y-60150000D01*
X-28750000Y-60150000D01*
X-28750000Y-65850000D01*
%TO.C,MEASURE1*%
X-42587300Y-66950000D02*
X-48587300Y-66950000D01*
X-48587300Y-59050000D01*
X-42587300Y-59050000D01*
X-42587300Y-66950000D01*
X-43337300Y-66250000D02*
X-47837300Y-66250000D01*
X-47837300Y-59750000D01*
X-43337300Y-59750000D01*
X-43337300Y-66250000D01*
%TO.C,BUZZER1*%
X-39610000Y-46020000D02*
X-45310000Y-46020000D01*
X-45310000Y-38520000D01*
X-39610000Y-38520000D01*
X-39610000Y-46020000D01*
%TO.C,BAT1*%
X-42452500Y-57980000D02*
X-48152500Y-57980000D01*
X-48152500Y-50480000D01*
X-42452500Y-50480000D01*
X-42452500Y-57980000D01*
%TO.C,U2*%
X-44550000Y-35050000D02*
X-44550000Y-33400000D01*
X-44550000Y-35050000D02*
X-17250000Y-35050000D01*
X-17250000Y-7750000D01*
X-44550000Y-7750000D01*
X-44550000Y-35050000D01*
%TO.C,U1*%
X-17465000Y-55510000D02*
X-39375000Y-55510000D01*
X-39375000Y-37510000D01*
X-17465000Y-37510000D01*
X-17465000Y-55510000D01*
X-18880000Y-54070000D02*
X-38340000Y-54070000D01*
X-38340000Y-38830000D01*
X-18880000Y-38830000D01*
X-18880000Y-54070000D01*
%TO.C,BATTERY_CHARGER1*%
X-20500000Y-69670000D02*
X-43500000Y-69670000D01*
X-43500000Y-83670000D01*
X-20500000Y-83670000D01*
X-20500000Y-69670000D01*
X-18000000Y-68070000D02*
X-46000000Y-68070000D01*
X-46000000Y-85270000D01*
X-18000000Y-85270000D01*
X-18000000Y-68070000D01*
%TD*%
M02*
