%TF.GenerationSoftware,KiCad,Pcbnew,9.0.6*%
%TF.CreationDate,2025-12-11T18:15:34+03:00*%
%TF.ProjectId,Design,44657369-676e-42e6-9b69-6361645f7063,rev?*%
%TF.SameCoordinates,Original*%
%TF.FileFunction,Copper,L1,Top*%
%TF.FilePolarity,Positive*%
%FSLAX46Y46*%
G04 Gerber Fmt 4.6, Leading zero omitted, Abs format (unit mm)*
G04 Created by KiCad (PCBNEW 9.0.6) date 2025-12-11 18:15:34*
%MOMM*%
%LPD*%
G01*
G04 APERTURE LIST*
G04 Aperture macros list*
%AMRoundRect*
0 Rectangle with rounded corners*
0 $1 Rounding radius*
0 $2 $3 $4 $5 $6 $7 $8 $9 X,Y pos of 4 corners*
0 Add a 4 corners polygon primitive as box body*
4,1,4,$2,$3,$4,$5,$6,$7,$8,$9,$2,$3,0*
0 Add four circle primitives for the rounded corners*
1,1,$1+$1,$2,$3*
1,1,$1+$1,$4,$5*
1,1,$1+$1,$6,$7*
1,1,$1+$1,$8,$9*
0 Add four rect primitives between the rounded corners*
20,1,$1+$1,$2,$3,$4,$5,0*
20,1,$1+$1,$4,$5,$6,$7,0*
20,1,$1+$1,$6,$7,$8,$9,0*
20,1,$1+$1,$8,$9,$2,$3,0*%
G04 Aperture macros list end*
%TA.AperFunction,SMDPad,CuDef*%
%ADD10RoundRect,0.237500X0.237500X-0.250000X0.237500X0.250000X-0.237500X0.250000X-0.237500X-0.250000X0*%
%TD*%
%TA.AperFunction,SMDPad,CuDef*%
%ADD11RoundRect,0.237500X-0.237500X0.250000X-0.237500X-0.250000X0.237500X-0.250000X0.237500X0.250000X0*%
%TD*%
%TA.AperFunction,ComponentPad*%
%ADD12RoundRect,0.150000X-0.350000X1.120000X-0.350000X-1.120000X0.350000X-1.120000X0.350000X1.120000X0*%
%TD*%
%TA.AperFunction,ComponentPad*%
%ADD13RoundRect,0.285750X-0.666750X-0.666750X0.666750X-0.666750X0.666750X0.666750X-0.666750X0.666750X0*%
%TD*%
%TA.AperFunction,ComponentPad*%
%ADD14C,0.800000*%
%TD*%
%TA.AperFunction,ComponentPad*%
%ADD15C,6.400000*%
%TD*%
%TA.AperFunction,ComponentPad*%
%ADD16RoundRect,0.190500X0.444500X-0.762000X0.444500X0.762000X-0.444500X0.762000X-0.444500X-0.762000X0*%
%TD*%
%TA.AperFunction,SMDPad,CuDef*%
%ADD17RoundRect,0.250001X-0.944999X0.507499X-0.944999X-0.507499X0.944999X-0.507499X0.944999X0.507499X0*%
%TD*%
%TA.AperFunction,ComponentPad*%
%ADD18RoundRect,0.150000X1.120000X-0.350000X1.120000X0.350000X-1.120000X0.350000X-1.120000X-0.350000X0*%
%TD*%
%TA.AperFunction,ComponentPad*%
%ADD19R,1.000000X2.540000*%
%TD*%
%TA.AperFunction,ComponentPad*%
%ADD20RoundRect,0.150000X-0.350000X-1.120000X0.350000X-1.120000X0.350000X1.120000X-0.350000X1.120000X0*%
%TD*%
%TA.AperFunction,ComponentPad*%
%ADD21RoundRect,0.190500X0.444500X-1.079500X0.444500X1.079500X-0.444500X1.079500X-0.444500X-1.079500X0*%
%TD*%
%TA.AperFunction,ComponentPad*%
%ADD22RoundRect,0.190500X1.079500X0.444500X-1.079500X0.444500X-1.079500X-0.444500X1.079500X-0.444500X0*%
%TD*%
%TA.AperFunction,Conductor*%
%ADD23C,0.500000*%
%TD*%
G04 APERTURE END LIST*
D10*
%TO.P,R9,1*%
%TO.N,3V3*%
X-28500000Y-44912500D03*
%TO.P,R9,2*%
%TO.N,Net-(U1-GPIO1)*%
X-28500000Y-43087500D03*
%TD*%
D11*
%TO.P,R7,1*%
%TO.N,Net-(U1-GPIO0)*%
X-35500000Y-43087500D03*
%TO.P,R7,2*%
%TO.N,Net-(BUZZER1-Pad1)*%
X-35500000Y-44912500D03*
%TD*%
D12*
%TO.P,SENSOR1,VIN,VIN*%
%TO.N,3V3*%
X-27420000Y-24500000D03*
%TO.P,SENSOR1,SDA,SDA*%
%TO.N,SDA*%
X-35040000Y-24500000D03*
%TO.P,SENSOR1,SCL,SCL*%
%TO.N,SCL*%
X-32500000Y-24500000D03*
%TO.P,SENSOR1,GND,GND*%
%TO.N,GND*%
X-29960000Y-24500000D03*
%TD*%
D13*
%TO.P,SWITCH1,3,OFF*%
%TO.N,unconnected-(SWITCH1-OFF-Pad3)*%
X-19500000Y-63000000D03*
%TO.P,SWITCH1,2*%
%TO.N,Net-(BATTERY_CHARGER1-PadOUT+)*%
X-23500000Y-63000000D03*
%TO.P,SWITCH1,1,ON*%
%TO.N,3V7*%
X-27500000Y-63000000D03*
%TD*%
D14*
%TO.P,U6,1,1*%
%TO.N,GND*%
X-45600000Y-86170000D03*
X-46302944Y-84472944D03*
X-46302944Y-87867056D03*
X-48000000Y-83770000D03*
D15*
X-48000000Y-86170000D03*
D14*
X-48000000Y-88570000D03*
X-49697056Y-84472944D03*
X-49697056Y-87867056D03*
X-50400000Y-86170000D03*
%TD*%
%TO.P,U5,1,1*%
%TO.N,GND*%
X-12700000Y-86170000D03*
X-13402944Y-84472944D03*
X-13402944Y-87867056D03*
X-15100000Y-83770000D03*
D15*
X-15100000Y-86170000D03*
D14*
X-15100000Y-88570000D03*
X-16797056Y-84472944D03*
X-16797056Y-87867056D03*
X-17500000Y-86170000D03*
%TD*%
%TO.P,U4,1,1*%
%TO.N,GND*%
X-45600000Y-11000000D03*
X-46302944Y-9302944D03*
X-46302944Y-12697056D03*
X-48000000Y-8600000D03*
D15*
X-48000000Y-11000000D03*
D14*
X-48000000Y-13400000D03*
X-49697056Y-9302944D03*
X-49697056Y-12697056D03*
X-50400000Y-11000000D03*
%TD*%
%TO.P,U3,1,1*%
%TO.N,GND*%
X-12700000Y-11000000D03*
X-13402944Y-9302944D03*
X-13402944Y-12697056D03*
X-15100000Y-8600000D03*
D15*
X-15100000Y-11000000D03*
D14*
X-15100000Y-13400000D03*
X-16797056Y-9302944D03*
X-16797056Y-12697056D03*
X-17500000Y-11000000D03*
%TD*%
D16*
%TO.P,MEASURE1,1,1*%
%TO.N,Net-(U1-GPIO1)*%
X-43362700Y-66250000D03*
X-43362700Y-59750000D03*
%TO.P,MEASURE1,2,2*%
%TO.N,GND*%
X-47862700Y-66250000D03*
X-47862700Y-59750000D03*
%TD*%
D17*
%TO.P,C1,2*%
%TO.N,GND*%
X-47500000Y-78127500D03*
%TO.P,C1,1*%
%TO.N,Net-(BAT1-Pad1)*%
X-47500000Y-74872500D03*
%TD*%
D18*
%TO.P,BUZZER1,2,2*%
%TO.N,GND*%
X-43000000Y-41000000D03*
%TO.P,BUZZER1,1,1*%
%TO.N,Net-(BUZZER1-Pad1)*%
X-43000000Y-43540000D03*
%TD*%
%TO.P,BAT1,2,2*%
%TO.N,GND*%
X-45842500Y-52960000D03*
%TO.P,BAT1,1,1*%
%TO.N,Net-(BAT1-Pad1)*%
X-45842500Y-55500000D03*
%TD*%
D19*
%TO.P,U2,GND,GND*%
%TO.N,GND*%
X-32170000Y-33460000D03*
D20*
%TO.P,U2,SCL,SCL*%
%TO.N,/GPIO3*%
X-29630000Y-33460000D03*
%TO.P,U2,SDA,SDA*%
%TO.N,/GPIO4*%
X-27049400Y-33449800D03*
D19*
%TO.P,U2,VCC,VCC*%
%TO.N,3V3*%
X-34710000Y-33460000D03*
%TD*%
D21*
%TO.P,U1,0,GPIO0*%
%TO.N,Net-(U1-GPIO0)*%
X-36660000Y-38830000D03*
%TO.P,U1,1,GPIO1*%
%TO.N,Net-(U1-GPIO1)*%
X-34120000Y-38830000D03*
%TO.P,U1,2,GPIO2*%
%TO.N,unconnected-(U1-GPIO2-Pad2)*%
X-31580000Y-38830000D03*
%TO.P,U1,3,GPIO3*%
%TO.N,/GPIO3*%
X-29040000Y-38830000D03*
%TO.P,U1,3V3,3V3*%
%TO.N,3V3*%
X-23960000Y-38830000D03*
%TO.P,U1,4,GPIO4*%
%TO.N,/GPIO4*%
X-26500000Y-38830000D03*
%TO.P,U1,5,GPIO5*%
%TO.N,unconnected-(U1-GPIO5-Pad5)*%
X-18880000Y-54070000D03*
%TO.P,U1,5V,5V*%
%TO.N,3V7*%
X-18880000Y-38830000D03*
%TO.P,U1,6,GPIO6*%
%TO.N,SDA*%
X-21420000Y-54070000D03*
%TO.P,U1,7,GPIO7*%
%TO.N,SCL*%
X-23960000Y-54070000D03*
%TO.P,U1,8,GPIO8*%
%TO.N,unconnected-(U1-GPIO8-Pad8)*%
X-26500000Y-54070000D03*
%TO.P,U1,9,GPIO9*%
%TO.N,unconnected-(U1-GPIO9-Pad9)*%
X-29040000Y-54070000D03*
%TO.P,U1,10,GPIO10*%
%TO.N,unconnected-(U1-GPIO10-Pad10)*%
X-31580000Y-54070000D03*
%TO.P,U1,20,GPIO20*%
%TO.N,unconnected-(U1-GPIO20-Pad20)*%
X-34120000Y-54070000D03*
%TO.P,U1,21,GPIO21*%
%TO.N,unconnected-(U1-GPIO21-Pad21)*%
X-36660000Y-54070000D03*
%TO.P,U1,GND,GND*%
%TO.N,GND*%
X-21420000Y-38830000D03*
%TD*%
D22*
%TO.P,BATTERY_CHARGER1,OUT-,OUT-*%
%TO.N,GND*%
X-43500000Y-83670000D03*
%TO.P,BATTERY_CHARGER1,OUT+,OUT+*%
%TO.N,Net-(BATTERY_CHARGER1-PadOUT+)*%
X-43500000Y-69670000D03*
%TO.P,BATTERY_CHARGER1,IN-,IN-*%
%TO.N,unconnected-(BATTERY_CHARGER1-PadIN-)*%
X-20500000Y-83670000D03*
%TO.P,BATTERY_CHARGER1,IN+,IN+*%
%TO.N,unconnected-(BATTERY_CHARGER1-PadIN+)*%
X-20500000Y-69670000D03*
%TO.P,BATTERY_CHARGER1,B-,B-*%
%TO.N,GND*%
X-43500000Y-80500000D03*
%TO.P,BATTERY_CHARGER1,B+,B+*%
%TO.N,Net-(BAT1-Pad1)*%
X-43500000Y-72840000D03*
%TD*%
D23*
%TO.N,Net-(U1-GPIO1)*%
X-43250000Y-59750000D02*
X-41500000Y-58000000D01*
X-43362700Y-59750000D02*
X-43250000Y-59750000D01*
X-43362700Y-59750000D02*
X-43362700Y-66250000D01*
%TO.N,GND*%
X-48612700Y-60500000D02*
X-50500000Y-60500000D01*
X-47862700Y-59750000D02*
X-48612700Y-60500000D01*
X-50500000Y-60500000D02*
X-50500000Y-79500000D01*
X-47862700Y-66250000D02*
X-47862700Y-59750000D01*
X-50500000Y-79500000D02*
X-49500000Y-80500000D01*
X-50500000Y-54000000D02*
X-50500000Y-60500000D01*
X-49500000Y-53000000D02*
X-50500000Y-54000000D01*
%TO.N,Net-(BAT1-Pad1)*%
X-46500000Y-70000000D02*
X-46500000Y-72500000D01*
X-46000000Y-55657500D02*
X-46000000Y-69500000D01*
X-46000000Y-69500000D02*
X-46500000Y-70000000D01*
X-45842500Y-55500000D02*
X-46000000Y-55657500D01*
X-46500000Y-72500000D02*
X-46840000Y-72840000D01*
%TO.N,Net-(BATTERY_CHARGER1-PadOUT+)*%
X-27670000Y-69670000D02*
X-23500000Y-65500000D01*
X-43500000Y-69670000D02*
X-27670000Y-69670000D01*
%TO.N,GND*%
X-47500000Y-78127500D02*
X-47500000Y-80500000D01*
X-47500000Y-80500000D02*
X-49500000Y-80500000D01*
%TO.N,Net-(BAT1-Pad1)*%
X-46840000Y-72840000D02*
X-43500000Y-72840000D01*
X-47500000Y-73500000D02*
X-46840000Y-72840000D01*
X-47500000Y-74872500D02*
X-47500000Y-73500000D01*
%TO.N,Net-(BATTERY_CHARGER1-PadOUT+)*%
X-23500000Y-65500000D02*
X-23500000Y-63000000D01*
%TO.N,3V7*%
X-33000000Y-63000000D02*
X-27500000Y-63000000D01*
X-39000000Y-57000000D02*
X-33000000Y-63000000D01*
X-25500000Y-50500000D02*
X-36745500Y-50500000D01*
X-36745500Y-50500000D02*
X-39000000Y-52754500D01*
X-18880000Y-43880000D02*
X-25500000Y-50500000D01*
X-18880000Y-38830000D02*
X-18880000Y-43880000D01*
X-39000000Y-52754500D02*
X-39000000Y-57000000D01*
%TO.N,Net-(U1-GPIO1)*%
X-32412500Y-45912500D02*
X-32412500Y-43087500D01*
X-34000000Y-47500000D02*
X-32412500Y-45912500D01*
X-37000000Y-47500000D02*
X-34000000Y-47500000D01*
X-41500000Y-52000000D02*
X-37000000Y-47500000D01*
X-41500000Y-58000000D02*
X-41500000Y-52000000D01*
%TO.N,GND*%
X-49460000Y-52960000D02*
X-45640000Y-52960000D01*
X-49500000Y-53000000D02*
X-49460000Y-52960000D01*
%TO.N,Net-(U1-GPIO1)*%
X-34120000Y-41380000D02*
X-34120000Y-38830000D01*
X-32412500Y-43087500D02*
X-34120000Y-41380000D01*
X-28500000Y-43087500D02*
X-32412500Y-43087500D01*
%TO.N,3V3*%
X-23960000Y-43460000D02*
X-23960000Y-38830000D01*
X-25412500Y-44912500D02*
X-23960000Y-43460000D01*
X-28500000Y-44912500D02*
X-25412500Y-44912500D01*
%TO.N,Net-(BUZZER1-Pad1)*%
X-41627500Y-44912500D02*
X-43000000Y-43540000D01*
X-35500000Y-44912500D02*
X-41627500Y-44912500D01*
%TO.N,Net-(U1-GPIO0)*%
X-36660000Y-41927500D02*
X-35500000Y-43087500D01*
X-36660000Y-38830000D02*
X-36660000Y-41927500D01*
%TO.N,/GPIO3*%
X-29630000Y-35870000D02*
X-29630000Y-33460000D01*
X-29040000Y-36460000D02*
X-29630000Y-35870000D01*
X-29040000Y-38830000D02*
X-29040000Y-36460000D01*
%TO.N,/GPIO4*%
X-26500000Y-33999200D02*
X-27049400Y-33449800D01*
X-26500000Y-38830000D02*
X-26500000Y-33999200D01*
%TO.N,GND*%
X-21500000Y-24000000D02*
X-24000000Y-21500000D01*
X-28500000Y-21500000D02*
X-29960000Y-22960000D01*
X-21500000Y-38750000D02*
X-21500000Y-24000000D01*
X-24000000Y-21500000D02*
X-28500000Y-21500000D01*
X-29960000Y-22960000D02*
X-29960000Y-24500000D01*
X-21420000Y-38830000D02*
X-21500000Y-38750000D01*
%TO.N,3V3*%
X-24000000Y-31340000D02*
X-27420000Y-27920000D01*
X-24000000Y-38790000D02*
X-24000000Y-31340000D01*
X-23960000Y-38830000D02*
X-24000000Y-38790000D01*
%TO.N,GND*%
X-33000000Y-36000000D02*
X-49458000Y-36000000D01*
X-32170000Y-35170000D02*
X-33000000Y-36000000D01*
X-32170000Y-33460000D02*
X-32170000Y-35170000D01*
X-49458000Y-36000000D02*
X-49479000Y-36021000D01*
X-30500000Y-27500000D02*
X-49000000Y-27500000D01*
X-49500000Y-28000000D02*
X-49500000Y-30000000D01*
X-49000000Y-27500000D02*
X-49500000Y-28000000D01*
X-29960000Y-26960000D02*
X-30500000Y-27500000D01*
X-29960000Y-24500000D02*
X-29960000Y-26960000D01*
%TO.N,SCL*%
X-16000000Y-23500000D02*
X-16000000Y-44000000D01*
X-23960000Y-51960000D02*
X-23960000Y-54070000D01*
X-20000000Y-19500000D02*
X-16000000Y-23500000D01*
X-16000000Y-44000000D02*
X-23960000Y-51960000D01*
X-31500000Y-19500000D02*
X-20000000Y-19500000D01*
X-32500000Y-20500000D02*
X-31500000Y-19500000D01*
X-32500000Y-24750000D02*
X-32500000Y-20500000D01*
%TO.N,SDA*%
X-21420000Y-51920000D02*
X-21420000Y-54070000D01*
X-14500000Y-45000000D02*
X-21420000Y-51920000D01*
X-14500000Y-22500000D02*
X-14500000Y-45000000D01*
X-32000000Y-17000000D02*
X-20000000Y-17000000D01*
X-35040000Y-20040000D02*
X-32000000Y-17000000D01*
X-20000000Y-17000000D02*
X-14500000Y-22500000D01*
X-35040000Y-24500000D02*
X-35040000Y-20040000D01*
%TO.N,3V3*%
X-27420000Y-27920000D02*
X-27420000Y-24500000D01*
X-33500000Y-29500000D02*
X-29000000Y-29500000D01*
X-34710000Y-30710000D02*
X-33500000Y-29500000D01*
X-34710000Y-33460000D02*
X-34710000Y-30710000D01*
X-29000000Y-29500000D02*
X-27420000Y-27920000D01*
%TO.N,GND*%
X-49479000Y-36021000D02*
X-49500000Y-36000000D01*
X-49500000Y-30000000D02*
X-49500000Y-36000000D01*
X-49479000Y-30021000D02*
X-49500000Y-30000000D01*
X-49500000Y-12500000D02*
X-49500000Y-28000000D01*
X-49500000Y-36000000D02*
X-49500000Y-41000000D01*
X-43500000Y-80500000D02*
X-47500000Y-80500000D01*
X-49500000Y-80500000D02*
X-49500000Y-84670000D01*
X-43000000Y-41000000D02*
X-49500000Y-41000000D01*
X-49500000Y-41000000D02*
X-49500000Y-53000000D01*
X-48000000Y-11000000D02*
X-49500000Y-12500000D01*
X-49500000Y-84670000D02*
X-48000000Y-86170000D01*
%TO.N,unconnected-(U1-GPIO9-Pad9)*%
X-29040000Y-54442900D02*
X-29040000Y-54070000D01*
%TO.N,GND*%
X-15100000Y-86170000D02*
X-48000000Y-86170000D01*
X-15100000Y-11000000D02*
X-48000000Y-11000000D01*
%TO.N,Net-(BAT1-Pad1)*%
X-43340000Y-73000000D02*
X-43500000Y-72840000D01*
%TO.N,GND*%
X-46302900Y-12697100D02*
X-46302900Y-9302900D01*
X-13402900Y-12697100D02*
X-13402900Y-9302900D01*
X-15100000Y-8600000D02*
X-15100000Y-11000000D01*
X-16797100Y-12697100D02*
X-16797100Y-9302900D01*
X-49697100Y-9534600D02*
X-49697100Y-9302900D01*
X-16797100Y-87867100D02*
X-16797100Y-84472900D01*
X-12700000Y-86170000D02*
X-13402900Y-86170000D01*
X-13402900Y-84472900D02*
X-13402900Y-86170000D01*
X-49697100Y-84472900D02*
X-49697100Y-87867100D01*
X-45600000Y-86170000D02*
X-46302900Y-86170000D01*
X-15100000Y-12697100D02*
X-16797100Y-12697100D01*
X-15100000Y-13400000D02*
X-15100000Y-12697100D01*
X-15100000Y-12697100D02*
X-15100000Y-11000000D01*
X-48000000Y-11000000D02*
X-48000000Y-9534600D01*
X-15100000Y-88570000D02*
X-15100000Y-86170000D01*
X-48000000Y-84472900D02*
X-46302900Y-84472900D01*
X-48000000Y-83770000D02*
X-48000000Y-84472900D01*
X-48000000Y-84472900D02*
X-48000000Y-86170000D01*
X-46302900Y-87867100D02*
X-46302900Y-86170000D01*
X-46302900Y-86170000D02*
X-46302900Y-84472900D01*
X-48000000Y-87867100D02*
X-49697100Y-87867100D01*
X-48000000Y-88570000D02*
X-48000000Y-87867100D01*
X-48000000Y-87867100D02*
X-48000000Y-86170000D01*
X-15100000Y-84472900D02*
X-16797100Y-84472900D01*
X-15100000Y-83770000D02*
X-15100000Y-84472900D01*
X-15100000Y-84472900D02*
X-15100000Y-86170000D01*
X-43500000Y-83670000D02*
X-43500000Y-80500000D01*
X-45600000Y-85770000D02*
X-45600000Y-86170000D01*
X-43500000Y-83670000D02*
X-45600000Y-85770000D01*
X-48000000Y-13400000D02*
X-48000000Y-11000000D01*
X-49697100Y-11000000D02*
X-50400000Y-11000000D01*
X-49697100Y-12697100D02*
X-49697100Y-11000000D01*
X-49697100Y-11000000D02*
X-49697100Y-9534600D01*
X-49461500Y-9067300D02*
X-49697100Y-9302900D01*
X-48000000Y-9067300D02*
X-49461500Y-9067300D01*
X-48000000Y-8600000D02*
X-48000000Y-9067300D01*
X-48000000Y-9067300D02*
X-48000000Y-9534600D01*
X-45600000Y-11000000D02*
X-48000000Y-11000000D01*
X-13402900Y-86170000D02*
X-13402900Y-87867100D01*
X-13402900Y-86170000D02*
X-15100000Y-86170000D01*
X-17500000Y-85175800D02*
X-16797100Y-84472900D01*
X-17500000Y-86170000D02*
X-17500000Y-85175800D01*
X-14602900Y-13897100D02*
X-13402900Y-12697100D01*
X-14602900Y-13897100D02*
X-15100000Y-13400000D01*
X-13402900Y-10297100D02*
X-13402900Y-9302900D01*
X-12700000Y-11000000D02*
X-13402900Y-10297100D01*
%TD*%
M02*
