%TF.GenerationSoftware,KiCad,Pcbnew,9.0.6*%
%TF.CreationDate,2025-12-11T18:15:34+03:00*%
%TF.ProjectId,Design,44657369-676e-42e6-9b69-6361645f7063,rev?*%
%TF.SameCoordinates,Original*%
%TF.FileFunction,Legend,Top*%
%TF.FilePolarity,Positive*%
%FSLAX46Y46*%
G04 Gerber Fmt 4.6, Leading zero omitted, Abs format (unit mm)*
G04 Created by KiCad (PCBNEW 9.0.6) date 2025-12-11 18:15:34*
%MOMM*%
%LPD*%
G01*
G04 APERTURE LIST*
%ADD10C,0.150000*%
%ADD11C,0.120000*%
G04 APERTURE END LIST*
D10*
X-29475180Y-44166666D02*
X-29951371Y-44499999D01*
X-29475180Y-44738094D02*
X-30475180Y-44738094D01*
X-30475180Y-44738094D02*
X-30475180Y-44357142D01*
X-30475180Y-44357142D02*
X-30427561Y-44261904D01*
X-30427561Y-44261904D02*
X-30379942Y-44214285D01*
X-30379942Y-44214285D02*
X-30284704Y-44166666D01*
X-30284704Y-44166666D02*
X-30141847Y-44166666D01*
X-30141847Y-44166666D02*
X-30046609Y-44214285D01*
X-30046609Y-44214285D02*
X-29998990Y-44261904D01*
X-29998990Y-44261904D02*
X-29951371Y-44357142D01*
X-29951371Y-44357142D02*
X-29951371Y-44738094D01*
X-29475180Y-43690475D02*
X-29475180Y-43499999D01*
X-29475180Y-43499999D02*
X-29522800Y-43404761D01*
X-29522800Y-43404761D02*
X-29570419Y-43357142D01*
X-29570419Y-43357142D02*
X-29713276Y-43261904D01*
X-29713276Y-43261904D02*
X-29903752Y-43214285D01*
X-29903752Y-43214285D02*
X-30284704Y-43214285D01*
X-30284704Y-43214285D02*
X-30379942Y-43261904D01*
X-30379942Y-43261904D02*
X-30427561Y-43309523D01*
X-30427561Y-43309523D02*
X-30475180Y-43404761D01*
X-30475180Y-43404761D02*
X-30475180Y-43595237D01*
X-30475180Y-43595237D02*
X-30427561Y-43690475D01*
X-30427561Y-43690475D02*
X-30379942Y-43738094D01*
X-30379942Y-43738094D02*
X-30284704Y-43785713D01*
X-30284704Y-43785713D02*
X-30046609Y-43785713D01*
X-30046609Y-43785713D02*
X-29951371Y-43738094D01*
X-29951371Y-43738094D02*
X-29903752Y-43690475D01*
X-29903752Y-43690475D02*
X-29856133Y-43595237D01*
X-29856133Y-43595237D02*
X-29856133Y-43404761D01*
X-29856133Y-43404761D02*
X-29903752Y-43309523D01*
X-29903752Y-43309523D02*
X-29951371Y-43261904D01*
X-29951371Y-43261904D02*
X-30046609Y-43214285D01*
X-33615180Y-44166666D02*
X-34091371Y-44499999D01*
X-33615180Y-44738094D02*
X-34615180Y-44738094D01*
X-34615180Y-44738094D02*
X-34615180Y-44357142D01*
X-34615180Y-44357142D02*
X-34567561Y-44261904D01*
X-34567561Y-44261904D02*
X-34519942Y-44214285D01*
X-34519942Y-44214285D02*
X-34424704Y-44166666D01*
X-34424704Y-44166666D02*
X-34281847Y-44166666D01*
X-34281847Y-44166666D02*
X-34186609Y-44214285D01*
X-34186609Y-44214285D02*
X-34138990Y-44261904D01*
X-34138990Y-44261904D02*
X-34091371Y-44357142D01*
X-34091371Y-44357142D02*
X-34091371Y-44738094D01*
X-34615180Y-43833332D02*
X-34615180Y-43166666D01*
X-34615180Y-43166666D02*
X-33615180Y-43595237D01*
X-44790419Y-76666666D02*
X-44742800Y-76714285D01*
X-44742800Y-76714285D02*
X-44695180Y-76857142D01*
X-44695180Y-76857142D02*
X-44695180Y-76952380D01*
X-44695180Y-76952380D02*
X-44742800Y-77095237D01*
X-44742800Y-77095237D02*
X-44838038Y-77190475D01*
X-44838038Y-77190475D02*
X-44933276Y-77238094D01*
X-44933276Y-77238094D02*
X-45123752Y-77285713D01*
X-45123752Y-77285713D02*
X-45266609Y-77285713D01*
X-45266609Y-77285713D02*
X-45457085Y-77238094D01*
X-45457085Y-77238094D02*
X-45552323Y-77190475D01*
X-45552323Y-77190475D02*
X-45647561Y-77095237D01*
X-45647561Y-77095237D02*
X-45695180Y-76952380D01*
X-45695180Y-76952380D02*
X-45695180Y-76857142D01*
X-45695180Y-76857142D02*
X-45647561Y-76714285D01*
X-45647561Y-76714285D02*
X-45599942Y-76666666D01*
X-44695180Y-75714285D02*
X-44695180Y-76285713D01*
X-44695180Y-75999999D02*
X-45695180Y-75999999D01*
X-45695180Y-75999999D02*
X-45552323Y-76095237D01*
X-45552323Y-76095237D02*
X-45457085Y-76190475D01*
X-45457085Y-76190475D02*
X-45409466Y-76285713D01*
D11*
%TO.C,R9*%
X-29022500Y-44254724D02*
X-29022500Y-43745276D01*
X-27977500Y-44254724D02*
X-27977500Y-43745276D01*
%TO.C,R7*%
X-34977500Y-43745276D02*
X-34977500Y-44254724D01*
X-36022500Y-43745276D02*
X-36022500Y-44254724D01*
%TO.C,C1*%
X-45990000Y-78250000D02*
X-45990000Y-73855000D01*
X-45990000Y-73855000D02*
X-49010000Y-73855000D01*
X-49010000Y-73855000D02*
X-49010000Y-78250000D01*
%TD*%
M02*
