%TF.GenerationSoftware,KiCad,Pcbnew,9.0.6*%
%TF.CreationDate,2025-12-11T18:15:34+03:00*%
%TF.ProjectId,Design,44657369-676e-42e6-9b69-6361645f7063,rev?*%
%TF.SameCoordinates,Original*%
%TF.FileFunction,Copper,L2,Bot*%
%TF.FilePolarity,Positive*%
%FSLAX46Y46*%
G04 Gerber Fmt 4.6, Leading zero omitted, Abs format (unit mm)*
G04 Created by KiCad (PCBNEW 9.0.6) date 2025-12-11 18:15:34*
%MOMM*%
%LPD*%
G01*
G04 APERTURE LIST*
G04 Aperture macros list*
%AMRoundRect*
0 Rectangle with rounded corners*
0 $1 Rounding radius*
0 $2 $3 $4 $5 $6 $7 $8 $9 X,Y pos of 4 corners*
0 Add a 4 corners polygon primitive as box body*
4,1,4,$2,$3,$4,$5,$6,$7,$8,$9,$2,$3,0*
0 Add four circle primitives for the rounded corners*
1,1,$1+$1,$2,$3*
1,1,$1+$1,$4,$5*
1,1,$1+$1,$6,$7*
1,1,$1+$1,$8,$9*
0 Add four rect primitives between the rounded corners*
20,1,$1+$1,$2,$3,$4,$5,0*
20,1,$1+$1,$4,$5,$6,$7,0*
20,1,$1+$1,$6,$7,$8,$9,0*
20,1,$1+$1,$8,$9,$2,$3,0*%
G04 Aperture macros list end*
%TA.AperFunction,ComponentPad*%
%ADD10RoundRect,0.150000X-0.350000X1.120000X-0.350000X-1.120000X0.350000X-1.120000X0.350000X1.120000X0*%
%TD*%
%TA.AperFunction,ComponentPad*%
%ADD11RoundRect,0.285750X-0.666750X-0.666750X0.666750X-0.666750X0.666750X0.666750X-0.666750X0.666750X0*%
%TD*%
%TA.AperFunction,ComponentPad*%
%ADD12C,0.800000*%
%TD*%
%TA.AperFunction,ComponentPad*%
%ADD13C,6.400000*%
%TD*%
%TA.AperFunction,ComponentPad*%
%ADD14RoundRect,0.190500X0.444500X-0.762000X0.444500X0.762000X-0.444500X0.762000X-0.444500X-0.762000X0*%
%TD*%
%TA.AperFunction,ComponentPad*%
%ADD15RoundRect,0.150000X1.120000X-0.350000X1.120000X0.350000X-1.120000X0.350000X-1.120000X-0.350000X0*%
%TD*%
%TA.AperFunction,ComponentPad*%
%ADD16R,1.000000X2.540000*%
%TD*%
%TA.AperFunction,ComponentPad*%
%ADD17RoundRect,0.150000X-0.350000X-1.120000X0.350000X-1.120000X0.350000X1.120000X-0.350000X1.120000X0*%
%TD*%
%TA.AperFunction,ComponentPad*%
%ADD18RoundRect,0.190500X0.444500X-1.079500X0.444500X1.079500X-0.444500X1.079500X-0.444500X-1.079500X0*%
%TD*%
%TA.AperFunction,ComponentPad*%
%ADD19RoundRect,0.190500X1.079500X0.444500X-1.079500X0.444500X-1.079500X-0.444500X1.079500X-0.444500X0*%
%TD*%
G04 APERTURE END LIST*
D10*
%TO.P,SENSOR1,VIN,VIN*%
%TO.N,3V3*%
X-27420000Y-24500000D03*
%TO.P,SENSOR1,SDA,SDA*%
%TO.N,SDA*%
X-35040000Y-24500000D03*
%TO.P,SENSOR1,SCL,SCL*%
%TO.N,SCL*%
X-32500000Y-24500000D03*
%TO.P,SENSOR1,GND,GND*%
%TO.N,GND*%
X-29960000Y-24500000D03*
%TD*%
D11*
%TO.P,SWITCH1,3,OFF*%
%TO.N,unconnected-(SWITCH1-OFF-Pad3)*%
X-19500000Y-63000000D03*
%TO.P,SWITCH1,2*%
%TO.N,Net-(BATTERY_CHARGER1-PadOUT+)*%
X-23500000Y-63000000D03*
%TO.P,SWITCH1,1,ON*%
%TO.N,3V7*%
X-27500000Y-63000000D03*
%TD*%
D12*
%TO.P,U6,1,1*%
%TO.N,GND*%
X-45600000Y-86170000D03*
X-46302944Y-84472944D03*
X-46302944Y-87867056D03*
X-48000000Y-83770000D03*
D13*
X-48000000Y-86170000D03*
D12*
X-48000000Y-88570000D03*
X-49697056Y-84472944D03*
X-49697056Y-87867056D03*
X-50400000Y-86170000D03*
%TD*%
%TO.P,U5,1,1*%
%TO.N,GND*%
X-12700000Y-86170000D03*
X-13402944Y-84472944D03*
X-13402944Y-87867056D03*
X-15100000Y-83770000D03*
D13*
X-15100000Y-86170000D03*
D12*
X-15100000Y-88570000D03*
X-16797056Y-84472944D03*
X-16797056Y-87867056D03*
X-17500000Y-86170000D03*
%TD*%
%TO.P,U4,1,1*%
%TO.N,GND*%
X-45600000Y-11000000D03*
X-46302944Y-9302944D03*
X-46302944Y-12697056D03*
X-48000000Y-8600000D03*
D13*
X-48000000Y-11000000D03*
D12*
X-48000000Y-13400000D03*
X-49697056Y-9302944D03*
X-49697056Y-12697056D03*
X-50400000Y-11000000D03*
%TD*%
%TO.P,U3,1,1*%
%TO.N,GND*%
X-12700000Y-11000000D03*
X-13402944Y-9302944D03*
X-13402944Y-12697056D03*
X-15100000Y-8600000D03*
D13*
X-15100000Y-11000000D03*
D12*
X-15100000Y-13400000D03*
X-16797056Y-9302944D03*
X-16797056Y-12697056D03*
X-17500000Y-11000000D03*
%TD*%
D14*
%TO.P,MEASURE1,1,1*%
%TO.N,Net-(U1-GPIO1)*%
X-43362700Y-66250000D03*
X-43362700Y-59750000D03*
%TO.P,MEASURE1,2,2*%
%TO.N,GND*%
X-47862700Y-66250000D03*
X-47862700Y-59750000D03*
%TD*%
D15*
%TO.P,BUZZER1,2,2*%
%TO.N,GND*%
X-43000000Y-41000000D03*
%TO.P,BUZZER1,1,1*%
%TO.N,Net-(BUZZER1-Pad1)*%
X-43000000Y-43540000D03*
%TD*%
%TO.P,BAT1,2,2*%
%TO.N,GND*%
X-45842500Y-52960000D03*
%TO.P,BAT1,1,1*%
%TO.N,Net-(BAT1-Pad1)*%
X-45842500Y-55500000D03*
%TD*%
D16*
%TO.P,U2,GND,GND*%
%TO.N,GND*%
X-32170000Y-33460000D03*
D17*
%TO.P,U2,SCL,SCL*%
%TO.N,/GPIO3*%
X-29630000Y-33460000D03*
%TO.P,U2,SDA,SDA*%
%TO.N,/GPIO4*%
X-27049400Y-33449800D03*
D16*
%TO.P,U2,VCC,VCC*%
%TO.N,3V3*%
X-34710000Y-33460000D03*
%TD*%
D18*
%TO.P,U1,0,GPIO0*%
%TO.N,Net-(U1-GPIO0)*%
X-36660000Y-38830000D03*
%TO.P,U1,1,GPIO1*%
%TO.N,Net-(U1-GPIO1)*%
X-34120000Y-38830000D03*
%TO.P,U1,2,GPIO2*%
%TO.N,unconnected-(U1-GPIO2-Pad2)*%
X-31580000Y-38830000D03*
%TO.P,U1,3,GPIO3*%
%TO.N,/GPIO3*%
X-29040000Y-38830000D03*
%TO.P,U1,3V3,3V3*%
%TO.N,3V3*%
X-23960000Y-38830000D03*
%TO.P,U1,4,GPIO4*%
%TO.N,/GPIO4*%
X-26500000Y-38830000D03*
%TO.P,U1,5,GPIO5*%
%TO.N,unconnected-(U1-GPIO5-Pad5)*%
X-18880000Y-54070000D03*
%TO.P,U1,5V,5V*%
%TO.N,3V7*%
X-18880000Y-38830000D03*
%TO.P,U1,6,GPIO6*%
%TO.N,SDA*%
X-21420000Y-54070000D03*
%TO.P,U1,7,GPIO7*%
%TO.N,SCL*%
X-23960000Y-54070000D03*
%TO.P,U1,8,GPIO8*%
%TO.N,unconnected-(U1-GPIO8-Pad8)*%
X-26500000Y-54070000D03*
%TO.P,U1,9,GPIO9*%
%TO.N,unconnected-(U1-GPIO9-Pad9)*%
X-29040000Y-54070000D03*
%TO.P,U1,10,GPIO10*%
%TO.N,unconnected-(U1-GPIO10-Pad10)*%
X-31580000Y-54070000D03*
%TO.P,U1,20,GPIO20*%
%TO.N,unconnected-(U1-GPIO20-Pad20)*%
X-34120000Y-54070000D03*
%TO.P,U1,21,GPIO21*%
%TO.N,unconnected-(U1-GPIO21-Pad21)*%
X-36660000Y-54070000D03*
%TO.P,U1,GND,GND*%
%TO.N,GND*%
X-21420000Y-38830000D03*
%TD*%
D19*
%TO.P,BATTERY_CHARGER1,OUT-,OUT-*%
%TO.N,GND*%
X-43500000Y-83670000D03*
%TO.P,BATTERY_CHARGER1,OUT+,OUT+*%
%TO.N,Net-(BATTERY_CHARGER1-PadOUT+)*%
X-43500000Y-69670000D03*
%TO.P,BATTERY_CHARGER1,IN-,IN-*%
%TO.N,unconnected-(BATTERY_CHARGER1-PadIN-)*%
X-20500000Y-83670000D03*
%TO.P,BATTERY_CHARGER1,IN+,IN+*%
%TO.N,unconnected-(BATTERY_CHARGER1-PadIN+)*%
X-20500000Y-69670000D03*
%TO.P,BATTERY_CHARGER1,B-,B-*%
%TO.N,GND*%
X-43500000Y-80500000D03*
%TO.P,BATTERY_CHARGER1,B+,B+*%
%TO.N,Net-(BAT1-Pad1)*%
X-43500000Y-72840000D03*
%TD*%
M02*
